<svg xmlns="http://www.w3.org/2000/svg" viewBox="0 0 64 64" role="img" aria-labelledby="title desc">
  <title id="title">Claddie KENYA shoe icon</title>
  <desc id="desc">A stylized orange shoe silhouette.</desc>
  <path fill="#111827" d="M9 39c2.5-3.3 7.2-4.3 11.6-2.8l6.8 2.4c2 .7 4 1 6.1 1h6.7c2.9 0 5.2 2.3 5.2 5.2V46H9v-7Z"/>
  <path fill="#f97316" d="M14 21c4 0 6.8 2.7 8.5 6.4l2.6 5.7c1.2 2.5 3.7 4.1 6.5 4.1h8.9c3.2 0 6.1 1.8 7.6 4.6l1.6 3.1c.8 1.5 2.3 2.4 4 2.4H57c1.7 0 3 1.3 3 3v1.5c0 1.2-.9 2.2-2.1 2.3l-4.4.4c-7.1.6-14.2.9-21.3.9H16.5c-6.2 0-11.3-5-11.3-11.3v-3.6c0-2.1 1.7-3.8 3.8-3.8h6.5c2.7 0 5.4-.6 7.9-1.8l3.9-1.9-1.7-3.8c-1.4-3.2-3.5-4.7-6.7-4.7H16c-1.1 0-2-.9-2-2s.9-2 2-2h-2Z"/>
  <circle cx="47" cy="50" r="2" fill="#111827"/>
</svg>